<?xml version="1.0" encoding="UTF-8"?>
<!-- Generated by Pixelmator Pro 3.7 -->
<svg width="1229" height="691" viewBox="0 0 1229 691" xmlns="http://www.w3.org/2000/svg">
    <linearGradient id="linearGradient1" x1="373.696659" y1="97.742051" x2="855.303341" y2="593.257949" gradientUnits="userSpaceOnUse">
        <stop offset="0.000463" stop-color="#66a5ff" stop-opacity="1"/>
        <stop offset="0.998778" stop-color="#007dff" stop-opacity="1"/>
    </linearGradient>
    <path id="--" fill="url(#linearGradient1)" fill-rule="evenodd" stroke="none" d="M 269 489 C 269 600.561523 359.438477 691 471 691 L 758 691 C 869.561523 691 960 600.561523 960 489 L 960 202 C 960 90.438477 869.561523 0 758 0 L 471 0 C 359.438477 0 269 90.438477 269 202 Z"/>
    <filter id="filter1" x="0" y="0" width="1229" height="691" filterUnits="userSpaceOnUse" primitiveUnits="userSpaceOnUse" color-interpolation-filters="sRGB">
        <feFlood flood-color="#000000" flood-opacity="0.456868"/>
        <feComposite in2="SourceGraphic" operator="out"/>
        <feGaussianBlur stdDeviation="7"/>
        <feOffset dx="4.940741" dy="3.404274"/>
        <feComposite in2="SourceGraphic" operator="atop"/>
    </filter>
    <path id="JB" fill="#ffffff" fill-rule="evenodd" stroke="none" filter="url(#filter1)" d="M 639.009766 201.598267 C 674.347839 184.832489 710.298767 198.769531 728.017334 236.115662 L 737.876831 256.896973 C 745.593018 273.160706 746.87793 293.213562 741.50177 309.785217 L 741.793945 309.646545 C 761.248413 313.699493 775.383362 327.655792 783.385315 344.52179 L 790.958557 360.484314 C 811.249146 403.251709 798.576904 439.88858 763.822998 456.377258 L 650.799805 510 L 588.439514 378.560364 C 597.684509 415.620483 580.472534 455.133667 545.979614 471.498474 L 528.164551 479.950653 C 490.782196 497.68631 449.034241 481.334015 427.960144 445.210876 L 472.935852 423.872559 C 482.00061 435.437622 493.582397 441.749939 507.308624 435.23764 L 522.787415 427.893921 C 539.726196 419.857391 544.698547 399.418732 536.267883 381.64917 L 451.247528 202.447754 L 496.515228 180.970947 L 530.684937 252.991974 L 639.009766 201.598267 Z M 733.211731 412.971802 C 746.645996 406.598053 751.742432 388.683167 744.312134 373.021881 L 743.026062 370.311279 C 735.738708 354.951202 718.639282 347.567047 705.205017 353.940826 L 643.290405 383.315613 L 671.297119 442.346619 L 733.211731 412.971802 Z M 653.272766 252.021942 L 594.278564 280.011169 L 622.713989 339.945801 L 681.708191 311.956604 C 694.85022 305.721466 699.946777 287.806671 692.659302 272.446503 L 690.801758 268.531219 C 683.657227 253.47226 666.414795 245.786835 653.272766 252.021942 Z"/>
</svg>
